{
  "source": "C:\\Users\\Peter\\Desktop\\stuff\\MIUN\\quantitative_research\\video_compression\\videos\\BVI-HD\\BVI-HD_CDVL_videos\\ORIG\\Toys_1920x1080_30fps.mp4",
  "output": "C:\\Users\\Peter\\Desktop\\stuff\\MIUN\\quantitative_research\\video_compression\\compressed_videos\\BVI-HD\\vp9\\1\\Toys_1920x1080_30fps_vp9.webm",
  "codec": "vp9",
  "ok": "Input #0, mov,mp4,m4a,3gp,3g2,mj2, from 'C:\\Users\\Peter\\Desktop\\stuff\\MIUN\\quantitative_research\\video_compression\\videos\\BVI-HD\\BVI-HD_CDVL_videos\\ORIG\\Toys_1920x1080_30fps.mp4':\n  Metadata:\n    major_brand     : isom\n    minor_version   : 512\n    compatible_brands: isomiso2avc1mp41\n    encoder         : Lavf54.28.101\n  Duration: 00:00:05.00, start: 0.000000, bitrate: 270887 kb/s\n  Stream #0:0[0x1](und): Video: h264 (High 4:4:4 Predictive) (avc1 / 0x31637661), yuv420p(progressive), 1920x1080, 270883 kb/s, 30 fps, 30 tbr, 30 tbn (default)\n    Metadata:\n      handler_name    : VideoHandler\n      vendor_id       : [0][0][0][0]\n[out#0/webm @ 00000178f2f89280] Codec AVOption b:a (set bitrate (in bits/s)) has not been used for any stream. The most likely reason is either wrong type (e.g. a video option with no video streams) or that it is a private option of some decoder which was not actually used for any stream.\nStream mapping:\n  Stream #0:0 -> #0:0 (h264 (native) -> vp9 (libvpx-vp9))\nPress [q] to stop, [?] for help\n[libvpx-vp9 @ 00000178f3a300c0] v1.15.2-100-g40561f514\nOutput #0, webm, to 'C:\\Users\\Peter\\Desktop\\stuff\\MIUN\\quantitative_research\\video_compression\\compressed_videos\\BVI-HD\\vp9\\1\\Toys_1920x1080_30fps_vp9.webm':\n  Metadata:\n    major_brand     : isom\n    minor_version   : 512\n    compatible_brands: isomiso2avc1mp41\n    encoder         : Lavf62.3.100\n  Stream #0:0(und): Video: vp9, yuv420p(tv, progressive), 1920x1080, q=2-31, 1000 kb/s, 30 fps, 1k tbn (default)\n    Metadata:\n      encoder         : Lavc62.11.100 libvpx-vp9\n      handler_name    : VideoHandler\n      vendor_id       : [0][0][0][0]\n    Side data:\n      cpb: bitrate max/min/avg: 0/0/0 buffer size: 1000000 vbv_delay: N/A\nframe=    0 fps=0.0 q=0.0 size=       0KiB time=N/A bitrate=N/A speed=N/A elapsed=0:00:00.52    \nframe=    4 fps=3.2 q=63.0 size=       1KiB time=00:00:00.13 bitrate=  38.0kbits/s speed=0.107x elapsed=0:00:01.24    \nframe=    9 fps=5.0 q=61.0 size=       1KiB time=00:00:00.30 bitrate=  16.9kbits/s speed=0.167x elapsed=0:00:01.79    \nframe=   13 fps=5.5 q=59.0 size=       1KiB time=00:00:00.43 bitrate=  11.7kbits/s speed=0.184x elapsed=0:00:02.35    \nframe=   18 fps=6.3 q=60.0 size=       1KiB time=00:00:00.60 bitrate=   8.5kbits/s speed=0.209x elapsed=0:00:02.87    \nframe=   22 fps=6.5 q=61.0 size=       1KiB time=00:00:00.70 bitrate=   7.2kbits/s speed=0.206x elapsed=0:00:03.39    \nframe=   26 fps=6.6 q=59.0 size=       1KiB time=00:00:00.86 bitrate=   5.9kbits/s speed=0.219x elapsed=0:00:03.95    \nframe=   30 fps=6.7 q=60.0 size=       1KiB time=00:00:01.00 bitrate=   5.1kbits/s speed=0.223x elapsed=0:00:04.49    \nframe=   34 fps=6.7 q=59.0 size=       1KiB time=00:00:01.10 bitrate=   4.6kbits/s speed=0.217x elapsed=0:00:05.06    \nframe=   36 fps=6.3 q=59.0 size=       1KiB time=00:00:01.20 bitrate=   4.2kbits/s speed=0.212x elapsed=0:00:05.67    \nframe=   38 fps=6.1 q=60.0 size=       1KiB time=00:00:01.26 bitrate=   4.0kbits/s speed=0.202x elapsed=0:00:06.27    \nframe=   40 fps=5.8 q=60.0 size=       1KiB time=00:00:01.33 bitrate=   3.8kbits/s speed=0.192x elapsed=0:00:06.94    \nframe=   43 fps=5.7 q=57.0 size=       1KiB time=00:00:01.43 bitrate=   3.5kbits/s speed=0.191x elapsed=0:00:07.51    \nframe=   46 fps=5.7 q=58.0 size=       1KiB time=00:00:01.53 bitrate=   3.3kbits/s speed=0.189x elapsed=0:00:08.11    \nframe=   50 fps=5.7 q=57.0 size=       1KiB time=00:00:01.66 bitrate=   3.0kbits/s speed=0.192x elapsed=0:00:08.70    \nframe=   53 fps=5.7 q=50.0 size=       1KiB time=00:00:01.76 bitrate=   2.9kbits/s speed=0.191x elapsed=0:00:09.26    \nframe=   57 fps=5.8 q=58.0 size=       1KiB time=00:00:01.90 bitrate=   2.7kbits/s speed=0.192x elapsed=0:00:09.87    \nframe=   60 fps=5.7 q=58.0 size=       1KiB time=00:00:02.00 bitrate=   2.5kbits/s speed=0.191x elapsed=0:00:10.45    \nframe=   63 fps=5.7 q=58.0 size=       1KiB time=00:00:02.10 bitrate=   2.4kbits/s speed=0.19x elapsed=0:00:11.02    \nframe=   66 fps=5.7 q=58.0 size=       1KiB time=00:00:02.20 bitrate=   2.3kbits/s speed=0.19x elapsed=0:00:11.57    \nframe=   69 fps=5.7 q=58.0 size=       1KiB time=00:00:02.30 bitrate=   2.2kbits/s speed=0.19x elapsed=0:00:12.08    \nframe=   71 fps=5.6 q=50.0 size=       1KiB time=00:00:02.36 bitrate=   2.1kbits/s speed=0.186x elapsed=0:00:12.72    \nframe=   74 fps=5.6 q=58.0 size=       1KiB time=00:00:02.46 bitrate=   2.1kbits/s speed=0.186x elapsed=0:00:13.29    \nframe=   77 fps=5.6 q=50.0 size=       1KiB time=00:00:02.56 bitrate=   2.0kbits/s speed=0.186x elapsed=0:00:13.81    \nframe=   80 fps=5.6 q=57.0 size=       1KiB time=00:00:02.63 bitrate=   1.9kbits/s speed=0.183x elapsed=0:00:14.35    \nframe=   82 fps=5.5 q=58.0 size=       1KiB time=00:00:02.73 bitrate=   1.9kbits/s speed=0.183x elapsed=0:00:14.94    \nframe=   86 fps=5.5 q=58.0 size=       1KiB time=00:00:02.86 bitrate=   1.8kbits/s speed=0.184x elapsed=0:00:15.54    \nframe=   88 fps=5.5 q=58.0 size=       1KiB time=00:00:02.93 bitrate=   1.7kbits/s speed=0.182x elapsed=0:00:16.12    \nframe=   92 fps=5.5 q=57.0 size=       1KiB time=00:00:03.03 bitrate=   1.7kbits/s speed=0.182x elapsed=0:00:16.65    \nframe=   94 fps=5.5 q=58.0 size=       1KiB time=00:00:03.13 bitrate=   1.6kbits/s speed=0.182x elapsed=0:00:17.22    \nframe=   97 fps=5.4 q=57.0 size=       1KiB time=00:00:03.23 bitrate=   1.6kbits/s speed=0.182x elapsed=0:00:17.80    \nframe=  100 fps=5.4 q=58.0 size=       1KiB time=00:00:03.33 bitrate=   1.5kbits/s speed=0.181x elapsed=0:00:18.37    \nframe=  103 fps=5.4 q=57.0 size=       1KiB time=00:00:03.43 bitrate=   1.5kbits/s speed=0.181x elapsed=0:00:18.92    \nframe=  106 fps=5.4 q=58.0 size=       1KiB time=00:00:03.53 bitrate=   1.4kbits/s speed=0.181x elapsed=0:00:19.54    \nframe=  110 fps=5.5 q=57.0 size=       1KiB time=00:00:03.66 bitrate=   1.4kbits/s speed=0.182x elapsed=0:00:20.09    \nframe=  113 fps=5.5 q=49.0 size=       1KiB time=00:00:03.76 bitrate=   1.3kbits/s speed=0.183x elapsed=0:00:20.62    \nframe=  117 fps=5.5 q=57.0 size=       1KiB time=00:00:03.90 bitrate=   1.3kbits/s speed=0.184x elapsed=0:00:21.17    \nframe=  120 fps=5.5 q=59.0 size=       1KiB time=00:00:04.00 bitrate=   1.3kbits/s speed=0.184x elapsed=0:00:21.70    \nframe=  123 fps=5.5 q=58.0 size=       1KiB time=00:00:04.10 bitrate=   1.2kbits/s speed=0.184x elapsed=0:00:22.24    \nframe=  126 fps=5.5 q=56.0 size=       1KiB time=00:00:04.20 bitrate=   1.2kbits/s speed=0.184x elapsed=0:00:22.80    \nframe=  126 fps=5.4 q=56.0 size=       1KiB time=00:00:04.20 bitrate=   1.2kbits/s speed=0.18x elapsed=0:00:23.33    \nframe=  126 fps=5.3 q=56.0 size=       1KiB time=00:00:04.20 bitrate=   1.2kbits/s speed=0.176x elapsed=0:00:23.87    \nframe=  126 fps=5.2 q=56.0 size=       1KiB time=00:00:04.20 bitrate=   1.2kbits/s speed=0.172x elapsed=0:00:24.43    \nframe=  126 fps=5.0 q=56.0 size=       1KiB time=00:00:04.20 bitrate=   1.2kbits/s speed=0.168x elapsed=0:00:25.00    \nframe=  126 fps=4.9 q=56.0 size=       1KiB time=00:00:04.20 bitrate=   1.2kbits/s speed=0.165x elapsed=0:00:25.52    \nframe=  126 fps=4.8 q=56.0 size=       1KiB time=00:00:04.20 bitrate=   1.2kbits/s speed=0.161x elapsed=0:00:26.05    \n[out#0/webm @ 00000178f2f89280] video:681KiB audio:0KiB subtitle:0KiB other streams:0KiB global headers:0KiB muxing overhead: 0.251100%\nframe=  150 fps=5.7 q=57.0 Lsize=     682KiB time=00:00:05.00 bitrate=1117.9kbits/s speed=0.19x elapsed=0:00:26.30    \n",
  "seconds": 26.5847647190094,
  "probe_out": {}
}